<?xml version="1.0" encoding="UTF-8" standalone="no"?>
<!-- Created with Inkscape (http://www.inkscape.org/) -->

<svg
   width="356.89258"
   height="356.89258"
   viewBox="0 0 356.89258 356.89257"
   version="1.1"
   id="svg5"
   sodipodi:docname="CastToButton.svg"
   inkscape:version="1.2.2 (732a01da63, 2022-12-09)"
   xml:space="preserve"
   xmlns:inkscape="http://www.inkscape.org/namespaces/inkscape"
   xmlns:sodipodi="http://sodipodi.sourceforge.net/DTD/sodipodi-0.dtd"
   xmlns="http://www.w3.org/2000/svg"
   xmlns:svg="http://www.w3.org/2000/svg"><sodipodi:namedview
     id="namedview147"
     pagecolor="#505050"
     bordercolor="#eeeeee"
     borderopacity="1"
     inkscape:showpageshadow="0"
     inkscape:pageopacity="0"
     inkscape:pagecheckerboard="0"
     inkscape:deskcolor="#505050"
     showgrid="false"
     inkscape:zoom="2.0566407"
     inkscape:cx="148.05697"
     inkscape:cy="232.66096"
     inkscape:window-width="1908"
     inkscape:window-height="1230"
     inkscape:window-x="1144"
     inkscape:window-y="828"
     inkscape:window-maximized="0"
     inkscape:current-layer="svg5"
     showguides="true"><sodipodi:guide
       position="531.0765,-99.159712"
       orientation="0,-1"
       id="guide134"
       inkscape:locked="false" /></sodipodi:namedview><defs
     id="defs2" /><path
     id="path2758"
     style="opacity:0.69;fill:#ffffff;fill-opacity:1;stroke:none;stroke-width:53.5326;stroke-linecap:round;stroke-linejoin:round;stroke-dasharray:none;stroke-opacity:1"
     d="M 178.44532,0 A 178.44633,178.44633 0 0 0 0,178.44727 178.44633,178.44633 0 0 0 178.44532,356.89258 178.44633,178.44633 0 0 0 356.89258,178.44727 178.44633,178.44633 0 0 0 178.44532,0 Z m -76.44727,122.875 h 144.47071 a 5.2967461,5.2967461 0 0 1 5.29687,5.29688 v 109.55663 a 5.2967461,5.2967461 0 0 1 -5.29687,5.29688 h -51.66993 a 5.2962165,5.2962165 0 0 1 -5.29492,-5.29688 5.2962165,5.2962165 0 0 1 5.29492,-5.29492 h 46.37305 V 133.4668 H 107.29492 v 28.81445 a 5.2962165,5.2962165 0 0 1 -5.29687,5.29688 5.2962165,5.2962165 0 0 1 -5.296878,-5.29688 v -34.10937 a 5.2967461,5.2967461 0 0 1 5.296878,-5.29688 z m -0.45899,48.73633 c 38.88244,-0.38414 73.0437,26.69686 83.19337,65.58593 a 5.2962165,5.2962165 0 0 1 -3.78711,6.46094 5.2962165,5.2962165 0 0 1 -6.46094,-3.78711 c -8.9913,-34.45069 -38.93017,-58.00298 -72.83985,-57.66796 a 5.2962165,5.2962165 0 0 1 -5.349608,-5.24415 5.2962165,5.2962165 0 0 1 5.244138,-5.34765 z m 0.35938,25.36523 c 24.83341,-0.2355 46.75137,16.38702 53.27734,40.38867 a 5.2872442,5.2872442 0 0 1 -3.71484,6.49024 5.2872442,5.2872442 0 0 1 -6.49024,-3.71485 c -5.28107,-19.42308 -22.90451,-32.78016 -42.97265,-32.58984 a 5.2872442,5.2872442 0 0 1 -5.335941,-5.23828 5.2872442,5.2872442 0 0 1 5.236331,-5.33594 z m 11.8789,22.80859 a 13.614435,13.614435 0 0 1 13.61329,13.61524 13.614435,13.614435 0 0 1 -13.61329,13.61328 13.614435,13.614435 0 0 1 -13.61523,-13.61328 13.614435,13.614435 0 0 1 13.61523,-13.61524 z" /></svg>
