<?xml version="1.0" encoding="UTF-8" standalone="no"?>
<!-- Created with Inkscape (http://www.inkscape.org/) -->

<svg
   width="256"
   height="256"
   viewBox="0 0 256 256"
   version="1.1"
   id="svg5"
   sodipodi:docname="Movies.svg"
   inkscape:version="1.2.2 (732a01da63, 2022-12-09)"
   xml:space="preserve"
   xmlns:inkscape="http://www.inkscape.org/namespaces/inkscape"
   xmlns:sodipodi="http://sodipodi.sourceforge.net/DTD/sodipodi-0.dtd"
   xmlns="http://www.w3.org/2000/svg"
   xmlns:svg="http://www.w3.org/2000/svg"><sodipodi:namedview
     id="movie"
     pagecolor="#505050"
     bordercolor="#eeeeee"
     borderopacity="1"
     inkscape:showpageshadow="0"
     inkscape:pageopacity="0"
     inkscape:pagecheckerboard="0"
     inkscape:deskcolor="#505050"
     showgrid="false"
     inkscape:zoom="2.0566407"
     inkscape:cx="206.89078"
     inkscape:cy="200.56979"
     inkscape:window-width="1908"
     inkscape:window-height="1230"
     inkscape:window-x="1385"
     inkscape:window-y="792"
     inkscape:window-maximized="0"
     inkscape:current-layer="svg5"
     showguides="true"><sodipodi:guide
       position="475.84188,-151.76623"
       orientation="0,-1"
       id="guide134"
       inkscape:locked="false" /></sodipodi:namedview><defs
     id="defs2" /><path
     id="path598"
     style="fill:currentColor;stroke-width:4.83342"
     d="M 114.4868,9.7940717 A 109.76167,109.76167 0 0 0 4.7256866,119.55519 109.76167,109.76167 0 0 0 114.4868,229.3181 109.76167,109.76167 0 0 0 211.48755,170.81146 l -0.13901,0.37372 c -0.98183,41.68027 18.26688,65.69332 37.29895,80.50868 l 4.83117,-7.30452 c -1.67424,-0.61087 -40.34958,-24.08228 -32.82163,-97.22824 A 109.76167,109.76167 0 0 0 224.24972,119.55519 109.76167,109.76167 0 0 0 114.4868,9.7940717 Z M 126.69291,27.86944 A 30.20967,30.20967 0 0 1 156.90218,58.078706 30.20967,30.20967 0 0 1 126.69291,88.287973 30.20967,30.20967 0 0 1 96.483637,58.078706 30.20967,30.20967 0 0 1 126.69291,27.86944 Z M 59.206351,58.335068 A 30.20967,30.20967 0 0 1 89.415621,88.544331 30.20967,30.20967 0 0 1 59.206351,118.7536 30.20967,30.20967 0 0 1 28.995283,88.544331 30.20967,30.20967 0 0 1 59.206351,58.335068 Z M 176.95984,81.205501 a 30.20967,30.20967 0 0 1 30.21106,30.209269 30.20967,30.20967 0 0 1 -30.21106,30.20927 30.20967,30.20967 0 0 1 -30.20926,-30.20927 30.20967,30.20967 0 0 1 30.20926,-30.209269 z M 114.75038,99.896509 A 19.849818,19.849818 0 0 1 134.60043,119.74474 19.849818,19.849818 0 0 1 114.75038,139.59479 19.849818,19.849818 0 0 1 94.900332,119.74474 19.849818,19.849818 0 0 1 114.75038,99.896509 Z M 69.991635,132.04294 A 30.20967,30.20967 0 0 1 100.20271,162.254 30.20967,30.20967 0 0 1 69.991635,192.46327 30.20967,30.20967 0 0 1 39.78237,162.254 30.20967,30.20967 0 0 1 69.991635,132.04294 Z m 71.911515,13.88328 a 30.20967,30.20967 0 0 1 30.21107,30.20927 30.20967,30.20967 0 0 1 -30.21107,30.20927 30.20967,30.20967 0 0 1 -30.20925,-30.20927 30.20967,30.20967 0 0 1 30.20925,-30.20927 z" /></svg>
