<?xml version="1.0" encoding="UTF-8" standalone="no"?>
<!-- Created with Inkscape (http://www.inkscape.org/) -->

<svg
   width="256"
   height="256"
   viewBox="0 0 256 256"
   version="1.1"
   id="svg5"
   sodipodi:docname="OpenFolder.svg"
   inkscape:version="1.2.2 (732a01da63, 2022-12-09)"
   xml:space="preserve"
   xmlns:inkscape="http://www.inkscape.org/namespaces/inkscape"
   xmlns:sodipodi="http://sodipodi.sourceforge.net/DTD/sodipodi-0.dtd"
   xmlns:xlink="http://www.w3.org/1999/xlink"
   xmlns="http://www.w3.org/2000/svg"
   xmlns:svg="http://www.w3.org/2000/svg"><sodipodi:namedview
     id="namedview147"
     pagecolor="#505050"
     bordercolor="#eeeeee"
     borderopacity="1"
     inkscape:showpageshadow="0"
     inkscape:pageopacity="0"
     inkscape:pagecheckerboard="0"
     inkscape:deskcolor="#505050"
     showgrid="false"
     inkscape:zoom="2.9085292"
     inkscape:cx="54.151081"
     inkscape:cy="156.95218"
     inkscape:window-width="1908"
     inkscape:window-height="1230"
     inkscape:window-x="1581"
     inkscape:window-y="788"
     inkscape:window-maximized="0"
     inkscape:current-layer="svg5"
     showguides="true"><sodipodi:guide
       position="475.84188,-151.76623"
       orientation="0,-1"
       id="guide134"
       inkscape:locked="false" /></sodipodi:namedview><defs
     id="defs2"><linearGradient
       inkscape:collect="always"
       id="linearGradient827"><stop
         style="stop-color:#554400;stop-opacity:1"
         offset="0"
         id="stop823" /><stop
         style="stop-color:#ffd42a;stop-opacity:1"
         offset="1"
         id="stop825" /></linearGradient><linearGradient
       inkscape:collect="always"
       id="linearGradient722"><stop
         style="stop-color:#ffd42a;stop-opacity:1;"
         offset="0"
         id="stop718" /><stop
         style="stop-color:#554400;stop-opacity:1"
         offset="1"
         id="stop720" /></linearGradient><linearGradient
       inkscape:collect="always"
       xlink:href="#linearGradient722"
       id="linearGradient724"
       x1="121.71101"
       y1="13.408835"
       x2="143.37143"
       y2="222.4492"
       gradientUnits="userSpaceOnUse"
       gradientTransform="translate(-0.34381639)" /><linearGradient
       inkscape:collect="always"
       xlink:href="#linearGradient827"
       id="linearGradient829"
       x1="174.65874"
       y1="52.26009"
       x2="169.15767"
       y2="-6.188695"
       gradientUnits="userSpaceOnUse" /></defs><path
     style="fill:url(#linearGradient829);stroke-width:5.229;fill-opacity:1"
     d="M 13.219578,56.633326 V 204.53727 c -0.62389,11.35575 -0.62469,19.40186 17.34594,19.19082 H 226.32284 c 12.05597,-1.00503 16.35851,-6.619 16.9099,-19.19082 V 36.633326 c 1.55423,-18.353402 -5.4297,-18.982352 -16.9099,-19.065022 h -52.46967 c -8.76899,-0.259493 -17.39372,2.640076 -22.46966,6 l -18.93933,10 c -3.55785,2.340346 -7.45594,4.227039 -12.93933,4 H 30.565518 c -16.21142,0 -17.34594,8.211097 -17.34594,19.065022 z"
     id="path633-1"
     sodipodi:nodetypes="sccccccccccss" /><path
     style="fill:url(#linearGradient724);fill-opacity:1;stroke-width:5.229"
     d="m 5.1279196,124.73395 c 3.5701998,28.17812 7.1167434,8.73474 8.0000004,79.90394 -0.623886,11.35575 -0.624689,19.40186 17.345941,19.19082 H 226.91882 c 12.05597,-1.00503 16.35851,-6.619 16.9099,-19.19082 3.23545,-68.79871 5.66816,-52.67122 8,-79.90394 1.55423,-18.35339 0.5703,-18.98235 -10.9099,-19.06502 H 16.473861 c -16.2114194,0 -12.7102391,8.29718 -11.3459414,19.06502 z"
     id="path633"
     sodipodi:nodetypes="sccccccss" /></svg>
