<?xml version="1.0" encoding="UTF-8" standalone="no"?>
<!-- Created with Inkscape (http://www.inkscape.org/) -->

<svg
   width="256"
   height="256"
   viewBox="0 0 256 256"
   version="1.1"
   id="svg5"
   sodipodi:docname="Series.svg"
   inkscape:version="1.2.2 (732a01da63, 2022-12-09)"
   xml:space="preserve"
   xmlns:inkscape="http://www.inkscape.org/namespaces/inkscape"
   xmlns:sodipodi="http://sodipodi.sourceforge.net/DTD/sodipodi-0.dtd"
   xmlns="http://www.w3.org/2000/svg"
   xmlns:svg="http://www.w3.org/2000/svg"><sodipodi:namedview
     id="namedview147"
     pagecolor="#505050"
     bordercolor="#eeeeee"
     borderopacity="1"
     inkscape:showpageshadow="0"
     inkscape:pageopacity="0"
     inkscape:pagecheckerboard="0"
     inkscape:deskcolor="#505050"
     showgrid="false"
     inkscape:zoom="2.0566407"
     inkscape:cx="276.90787"
     inkscape:cy="234.11965"
     inkscape:window-width="1908"
     inkscape:window-height="1230"
     inkscape:window-x="1551"
     inkscape:window-y="812"
     inkscape:window-maximized="0"
     inkscape:current-layer="svg5"
     showguides="true"><sodipodi:guide
       position="475.84188,-151.76623"
       orientation="0,-1"
       id="guide134"
       inkscape:locked="false" /></sodipodi:namedview><defs
     id="defs2" /><path
     id="rect352"
     style="fill:#000000;stroke-width:5.229;stroke:none"
     d="M 70.576172 12.482422 C 68.827688 12.513113 67.302583 13.08468 66.246094 14.240234 C 63.428789 17.321714 65.044857 23.352974 69.869141 27.763672 L 107.19141 61.886719 L 31.359375 61.886719 C 20.081587 61.886719 11.001953 70.966353 11.001953 82.244141 L 11.001953 201.74805 C 11.001953 213.02584 20.081587 222.10547 31.359375 222.10547 L 47.208984 222.10547 C 47.208374 222.14987 47.207031 222.1937 47.207031 222.23828 L 47.207031 234.81836 C 47.207031 239.39171 50.429861 243.07227 54.433594 243.07227 C 58.437326 243.07227 61.660156 239.39171 61.660156 234.81836 L 61.660156 222.23828 C 61.660156 222.19369 61.65686 222.14988 61.65625 222.10547 L 190.67188 222.10547 C 190.67126 222.14988 190.66797 222.19369 190.66797 222.23828 L 190.66797 234.81836 C 190.66797 239.3917 193.89277 243.07227 197.89648 243.07227 C 201.90022 243.07227 205.12305 239.3917 205.12305 234.81836 L 205.12305 222.23828 C 205.12305 222.19369 205.11975 222.14988 205.11914 222.10547 L 221.68945 222.10547 C 232.96725 222.10547 242.04687 213.02584 242.04688 201.74805 L 242.04688 82.244141 C 242.04687 70.966353 232.96725 61.886719 221.68945 61.886719 L 147.33789 61.886719 L 184.31836 27.949219 C 189.13422 23.529342 190.73723 17.494073 187.91406 14.417969 C 186.85537 13.26443 185.32862 12.695329 183.58008 12.667969 C 180.66585 12.622369 177.13492 14.081328 174.125 16.84375 L 127.2832 59.833984 L 80.039062 16.638672 C 77.023885 13.881985 73.490312 12.43127 70.576172 12.482422 z M 55.425781 84.578125 L 162.55273 84.578125 C 171.92585 84.578125 179.47266 92.124971 179.47266 101.49805 L 179.47266 181.80664 C 179.47266 191.17969 171.92585 198.72656 162.55273 198.72656 L 55.425781 198.72656 C 46.05273 198.72656 38.507813 191.17969 38.507812 181.80664 L 38.507812 101.49805 C 38.507812 92.124971 46.05273 84.578125 55.425781 84.578125 z M 209.38477 131.68164 A 10.314491 10.314491 0 0 1 219.69922 141.99609 A 10.314491 10.314491 0 0 1 209.38477 152.31055 A 10.314491 10.314491 0 0 1 199.07031 141.99609 A 10.314491 10.314491 0 0 1 209.38477 131.68164 z M 209.38477 171.56445 A 10.314491 10.314491 0 0 1 219.69922 181.87891 A 10.314491 10.314491 0 0 1 209.38477 192.19336 A 10.314491 10.314491 0 0 1 199.07031 181.87891 A 10.314491 10.314491 0 0 1 209.38477 171.56445 z " /></svg>
