<?xml version="1.0" encoding="UTF-8" standalone="no"?>
<!-- Created with Inkscape (http://www.inkscape.org/) -->

<svg
   width="245.06055"
   height="206.16016"
   viewBox="0 0 245.06055 206.16016"
   version="1.1"
   id="svg5"
   sodipodi:docname="UnknownMedia.svg"
   inkscape:version="1.2.2 (732a01da63, 2022-12-09)"
   xml:space="preserve"
   xmlns:inkscape="http://www.inkscape.org/namespaces/inkscape"
   xmlns:sodipodi="http://sodipodi.sourceforge.net/DTD/sodipodi-0.dtd"
   xmlns="http://www.w3.org/2000/svg"
   xmlns:svg="http://www.w3.org/2000/svg"><sodipodi:namedview
     id="movie"
     pagecolor="#505050"
     bordercolor="#eeeeee"
     borderopacity="1"
     inkscape:showpageshadow="0"
     inkscape:pageopacity="0"
     inkscape:pagecheckerboard="0"
     inkscape:deskcolor="#505050"
     showgrid="false"
     inkscape:zoom="2.0566407"
     inkscape:cx="216.12915"
     inkscape:cy="46.921176"
     inkscape:window-width="1908"
     inkscape:window-height="1230"
     inkscape:window-x="1467"
     inkscape:window-y="813"
     inkscape:window-maximized="0"
     inkscape:current-layer="svg5"
     showguides="true"><sodipodi:guide
       position="470.49423,-169.02795"
       orientation="0,-1"
       id="guide134"
       inkscape:locked="false" /></sodipodi:namedview><defs
     id="defs2" /><path
     id="rect286"
     style="fill:#000000;stroke:none;stroke-width:24.4313;stroke-linecap:round;stroke-linejoin:round"
     d="M 0,0 V 206.16015 H 245.06054 V 0 Z M 7.7812498,5.890625 H 31.570313 V 29.888672 H 7.7812498 Z m 34.6894532,0 H 66.261719 V 29.888672 H 42.470703 Z m 34.689453,0 H 100.95117 V 29.888672 H 77.160156 Z m 34.691404,0 h 23.78906 v 23.998047 h -23.78906 z m 34.68945,0 h 23.79102 v 23.998047 h -23.79102 z m 34.69141,0 h 23.78906 v 23.998047 h -23.78906 z m 34.68945,0 h 23.79102 V 29.888672 H 215.92187 Z M 6.8085938,39.384766 H 239.22656 V 167.74804 H 6.8085938 Z M 6.0234378,178.11524 H 29.814453 v 24 H 6.0234378 Z m 34.6894532,0 h 23.791015 v 24 H 40.712891 Z m 34.691406,0 h 23.791017 v 24 H 75.404297 Z m 34.689453,0 h 23.79101 v 24 h -23.79101 z m 34.6914,0 h 23.78907 v 24 h -23.78907 z m 34.68946,0 h 23.79101 v 24 h -23.79101 z m 34.68945,0 h 23.79101 v 24 h -23.79101 z" /><rect
     style="opacity:0.69;fill:#000000;stroke:none;stroke-width:21.875;stroke-linecap:round;stroke-linejoin:round"
     id="rect920-3"
     width="232.41785"
     height="128.36467"
     x="6.7530088"
     y="39.328804" /><path
     sodipodi:type="star"
     style="fill:#ffffff;stroke:#ffffff;stroke-width:18.449;stroke-linecap:round;stroke-linejoin:round"
     id="path865"
     inkscape:flatsided="false"
     sodipodi:sides="3"
     sodipodi:cx="58.347576"
     sodipodi:cy="96.759727"
     sodipodi:r1="123.0171"
     sodipodi:r2="61.508549"
     sodipodi:arg1="-0.0039525486"
     sodipodi:arg2="1.043245"
     inkscape:rounded="0"
     inkscape:randomized="0"
     d="M 181.36371,96.273498 89.312154,149.90572 -2.7394048,203.53794 -3.1604921,97.002843 -3.5815795,-9.532257 88.891066,43.37062 Z"
     inkscape:transform-center-x="-15.324031"
     inkscape:transform-center-y="0.12068117"
     transform="matrix(0.50171182,0,0,0.49639766,81.082236,55.767507)" /><text
     xml:space="preserve"
     style="font-style:normal;font-variant:normal;font-weight:normal;font-stretch:normal;font-size:79.5325px;font-family:Century;-inkscape-font-specification:'Century, Normal';font-variant-ligatures:normal;font-variant-caps:normal;font-variant-numeric:normal;font-variant-east-asian:normal;fill:#ff0000;stroke:none;stroke-width:122.274;stroke-linecap:round;stroke-linejoin:round"
     x="85.409409"
     y="141.04489"
     id="text443"
     transform="scale(1.0714392,0.93332408)"><tspan
       sodipodi:role="line"
       id="tspan441"
       x="85.409409"
       y="141.04489"
       style="font-style:normal;font-variant:normal;font-weight:normal;font-stretch:normal;font-size:79.5325px;font-family:Century;-inkscape-font-specification:'Century, Normal';font-variant-ligatures:normal;font-variant-caps:normal;font-variant-numeric:normal;font-variant-east-asian:normal;fill:#ff0000;stroke-width:122.274">?</tspan></text></svg>
