<?xml version="1.0" encoding="UTF-8" standalone="no"?>
<!-- Created with Inkscape (http://www.inkscape.org/) -->

<svg
   width="512mm"
   height="512mm"
   viewBox="0 0 512 512"
   version="1.1"
   id="svg5"
   xml:space="preserve"
   sodipodi:docname="Itamure.svg"
   inkscape:version="1.2 (dc2aedaf03, 2022-05-15)"
   inkscape:export-filename="Itamure.png"
   inkscape:export-xdpi="1"
   inkscape:export-ydpi="1"
   xmlns:inkscape="http://www.inkscape.org/namespaces/inkscape"
   xmlns:sodipodi="http://sodipodi.sourceforge.net/DTD/sodipodi-0.dtd"
   xmlns="http://www.w3.org/2000/svg"
   xmlns:svg="http://www.w3.org/2000/svg"><sodipodi:namedview
     id="namedview7"
     pagecolor="#505050"
     bordercolor="#eeeeee"
     borderopacity="1"
     inkscape:showpageshadow="0"
     inkscape:pageopacity="0"
     inkscape:pagecheckerboard="0"
     inkscape:deskcolor="#505050"
     inkscape:document-units="mm"
     showgrid="false"
     inkscape:zoom="0.35811768"
     inkscape:cx="619.90797"
     inkscape:cy="917.29625"
     inkscape:window-width="2011"
     inkscape:window-height="1230"
     inkscape:window-x="1205"
     inkscape:window-y="303"
     inkscape:window-maximized="0"
     inkscape:current-layer="layer2" /><defs
     id="defs2" /><g
     inkscape:groupmode="layer"
     id="layer2"
     inkscape:label="Face"><g
       id="g693"
       inkscape:export-filename=".\Itamure 16.png"
       inkscape:export-xdpi="1"
       inkscape:export-ydpi="1"><path
         style="fill:#ffffff;stroke:#ffffff;stroke-width:0.264585px;stroke-linecap:butt;stroke-linejoin:miter;stroke-opacity:1"
         d="m 432.52892,81.709009 18.75911,17.75188 0.0571,106.836801 -34.18628,56.01911 -0.031,63.01101 -26.3347,24.42204 c 7.12891,9.66916 15.29573,18.87308 3.52526,37.01456 l -68.99318,65.97153 c -10.45139,8.39114 -21.86375,8.32524 -33.99295,1.95145 l -9.2537,8.75004 35.18907,33.61519 48.34552,-45.82752 30.39403,-0.29498 17.80408,-16.64937 0.14747,-61.11356 36.76278,-34.74838 v -67.98594 l 34.7657,-56.90667 10e-6,-118.849509 -33.75854,-32.230364 z"
         id="path1044"
         sodipodi:nodetypes="ccccccccccccccccccccc" /><path
         style="fill:#ffffff;stroke:#ffffff;stroke-width:0.264585px;stroke-linecap:butt;stroke-linejoin:miter;stroke-opacity:1"
         d="m 85.807378,81.709006 -18.759094,17.751884 -0.05661,106.8368 34.186276,56.01911 0.031,63.01101 26.33469,24.42204 c -7.12891,9.66916 -15.29574,18.87308 -3.52527,37.01456 l 68.99316,65.97153 c 10.4514,8.39114 21.86376,8.32524 33.99297,1.95145 l 9.25369,8.75004 -35.18907,33.61519 -48.34553,-45.82752 -30.39403,-0.29498 -17.80405,-16.64937 -0.14749,-61.11356 -36.762747,-34.74838 v -67.98594 l -34.765809,-56.90667 -10e-6,-118.849503 33.7585,-32.230371 z"
         id="path1044-5"
         sodipodi:nodetypes="ccccccccccccccccccccc" /><path
         id="path1246"
         style="fill:#ffffff;stroke:#ffffff;stroke-width:0.264585px;stroke-linecap:butt;stroke-linejoin:miter;stroke-opacity:1"
         d="M 159.89262,77.025293 V 180.03658 l 6.79861,6.04363 19.89228,-19.61489 59.67645,53.83391 -21.4028,21.95791 34.49664,31.95254 34.2702,-31.95254 -21.17647,-21.95791 59.85114,-53.83391 19.99465,20.14405 6.01776,-6.57279 V 77.025293 h -2.51818 c -4.44768,10.870381 -11.99859,17.688893 -23.49423,18.154976 H 186.58351 c -11.27634,-1.010493 -19.6894,-6.409734 -23.92106,-18.154976 z m 41.65894,39.958307 h 7.83416 l 49.91476,81.53615 49.79291,-81.53615 h 7.66107 v 46.10934 l -57.45398,55.19556 -57.74892,-55.19556 z"
         sodipodi:nodetypes="ccccccccccccccccccccccccccc" /><path
         style="fill:#ffffff;stroke:#ffffff;stroke-width:0.264585px;stroke-linecap:butt;stroke-linejoin:miter;stroke-opacity:1"
         d="m 397.86919,138.74168 h 17.43711 v 93.41764 l -121.51898,85.19681 -10.93097,-14.1637 68.85677,-49.60458 c 9.2867,-9.48829 10.40382,-19.96868 3.07269,-31.47494 l 16.84503,-15.35977 z"
         id="path1264"
         sodipodi:nodetypes="ccccccccc" /><path
         style="fill:#ffffff;stroke:#ffffff;stroke-width:0.264585px;stroke-linecap:butt;stroke-linejoin:miter;stroke-opacity:1"
         d="m 120.64297,138.41702 h -17.43713 v 93.4177 l 121.51898,85.19687 10.93088,-14.16375 -68.85676,-49.6046 c -9.28661,-9.48833 -10.40378,-19.96872 -3.07267,-31.47493 L 146.88128,206.4285 Z"
         id="path1277"
         sodipodi:nodetypes="ccccccccc" /><path
         style="fill:#ffffff;stroke:#ffffff;stroke-width:0.264585px;stroke-linecap:butt;stroke-linejoin:miter;stroke-opacity:1"
         d="m 259.30025,291.64475 38.21514,35.96597 -12.99264,11.7512 v 53.77092 l 12.99264,11.75119 -38.21514,36.32213 -38.33606,-36.32213 12.9926,-11.75119 v -53.77092 l -12.63654,-11.7512 z"
         id="path1291"
         sodipodi:nodetypes="ccccccccccc" /><path
         style="fill:#ffffff;stroke:#ffffff;stroke-width:0.264585px;stroke-linecap:butt;stroke-linejoin:miter;stroke-opacity:1"
         d="m 387.51974,268.1667 -5.01038,41.04339 -72.54395,54.89233 5.53959,-41.54698 z"
         id="path1306"
         sodipodi:nodetypes="ccccc" /><path
         style="fill:#ffffff;stroke:#ffffff;stroke-width:0.264585px;stroke-linecap:butt;stroke-linejoin:miter;stroke-opacity:1"
         d="m 130.96013,268.1667 5.01042,41.04339 72.54388,54.89233 -5.53961,-41.54698 z"
         id="path1308"
         sodipodi:nodetypes="ccccc" /><path
         style="fill:#ffffff;stroke:#ffffff;stroke-width:0.264585px;stroke-linecap:butt;stroke-linejoin:miter;stroke-opacity:1"
         d="m 259.10185,465.32593 -48.87465,36.25908 h 97.7494 z"
         id="path1325"
         sodipodi:nodetypes="cccc" /><path
         style="fill:#ffffff;stroke:none;stroke-width:0.264585px;stroke-linecap:butt;stroke-linejoin:miter;stroke-opacity:1"
         d="M 98.840186,32.934631 106.4857,55.91006 c 100.0806,-31.519676 202.10475,-32.267795 306.21401,0 l 7.3363,-22.975429 c -109.02829,-33.61524445 -216.19932,-34.1313487 -321.195824,0 z"
         id="path547"
         sodipodi:nodetypes="ccccc" /></g></g></svg>
